
**** Backyard.aka.El traspatio.2009.x264.AC3.Nordic.mkv.Zen_Bud ****

Format                           : Matroska
File size                        : 1.23 GiB
Duration                         : 1h 57mn
Overall bit rate                 : 1 507 Kbps
Writing application              : HandBrake svn3507
Writing library                  : libmkv 0.6.4.1

Video

Format                           : AVC
Duration                         : 1h 57mn
Bit rate                         : 1 029 Kbps
Width                            : 720 pixels
Height                           : 424 pixels
Display aspect ratio             : 2.40:1
Stream size                      : 862 MiB (68%)
Writing library                  : x264 core 104


Audio

Format                           : AC-3
Duration                         : 1h 57mn
Bit rate                         : 448 Kbps
Channel(s)                       : 6 channels
Channel positions                : Front: L C R, Side: L R, LFE
Sampling rate                    : 48.0 KHz
Bit depth                        : 16 bits
Stream size                      : 375 MiB (30%)
Language.........................: Spanish

Text #1
Language                         : Finnish

Text #2
Language                         : Norwegian

Text #3
Language                         : Swedish

Text #4
Language                         : Danish

Menu
00:00:00.000                     : Chapter  1
00:08:27.280                     : Chapter  2


